<?xml version="1.0" encoding="UTF-8" standalone="no"?><!DOCTYPE svg PUBLIC "-//W3C//DTD SVG 1.1//EN" "http://www.w3.org/Graphics/SVG/1.1/DTD/svg11.dtd"><svg width="100%" height="100%" viewBox="0 0 22 39" version="1.1" xmlns="http://www.w3.org/2000/svg" xmlns:xlink="http://www.w3.org/1999/xlink" xml:space="preserve" xmlns:serif="http://www.serif.com/" style="fill-rule:evenodd;clip-rule:evenodd;stroke-linejoin:round;stroke-miterlimit:1.41421;"><path id="Down" d="M1.115,7.692c-1.422,7.889 -1.55,15.701 0,23.412l6.599,-0.847c0,0 0,3.599 0,6.943c0,0.715 0.474,1.344 1.161,1.54c0.688,0.196 1.422,-0.087 1.8,-0.694c3.118,-5.017 7.891,-12.696 10.218,-16.441c0.84,-1.352 0.84,-3.063 0,-4.414c-2.318,-3.73 -7.061,-11.361 -10.179,-16.379c-0.379,-0.609 -1.116,-0.892 -1.805,-0.693c-0.689,0.2 -1.161,0.833 -1.157,1.55c0.023,3.371 0.048,6.991 0.048,6.991l-6.685,-0.968Z" style="fill:url(#_Linear1);"/><defs><linearGradient id="_Linear1" x1="0" y1="0" x2="1" y2="0" gradientUnits="userSpaceOnUse" gradientTransform="matrix(21.5234,0,6.70399e-17,-38.7456,-3.90799e-14,19.429)"><stop offset="0" style="stop-color:#d7f4ff;stop-opacity:1"/><stop offset="1" style="stop-color:#74bde0;stop-opacity:1"/></linearGradient></defs></svg>