<svg xmlns="http://www.w3.org/2000/svg" width="1918" height="1283"><g id="Page-1"><g id="plp_animation" fill-rule="nonzero" fill="none"><g id="P2"><g id="cube4"><path id="top" fill="#E2E2E2" d="M1744.203 126.8l-86.603-50 86.603-50 86.602 50z"/><path id="left" fill="#D8D8D8" d="M1657.601 176.8v-100l86.603 50v100z"/><path id="right" fill="#C3C3C3" d="M1744.2 126.8l86.603-50v100l-86.603 50z"/></g><g id="cube5"><path id="top" fill="#E2E2E2" d="M1830.802 176.8l-86.602-50 86.602-50 86.603 50z"/><path id="left" fill="#D8D8D8" d="M1744.201 226.8v-100l86.603 50v100z"/><path id="right" fill="#C3C3C3" d="M1830.8 176.8l86.602-50v100l-86.602 50z"/></g><g id="cube1"><path id="top" fill="#E2E2E2" d="M1657.603 176.8l-86.603-50 86.603-50 86.602 50z"/><path id="left" fill="#D8D8D8" d="M1571.001 226.8v-100l86.603 50v100z"/><path id="right" fill="#C3C3C3" d="M1657.6 176.8l86.603-50v100l-86.603 50z"/></g><g id="cube2"><path id="top" fill="#E2E2E2" d="M1744.203 226.8l-86.603-50 86.603-50 86.602 50z"/><path id="left" fill="#D8D8D8" d="M1657.601 276.8v-100l86.603 50v100z"/><path id="right" fill="#C3C3C3" d="M1744.2 226.8l86.603-50v100l-86.603 50z"/></g><g id="cube3"><path id="top" fill="#E2E2E2" d="M1830.802 276.8l-86.602-50 86.602-50 86.603 50z"/><path id="left" fill="#D8D8D8" d="M1744.201 326.8v-100l86.603 50v100z"/><path id="right" fill="#C3C3C3" d="M1830.8 276.8l86.602-50v100l-86.602 50z"/></g></g><g id="L"><g id="cube1"><path id="top" fill="#E2E2E2" d="M752.603 100.8L666 50.8l86.603-50 86.602 50z"/><path id="left" fill="#D8D8D8" d="M666.001 150.8v-100l86.603 50v100z"/><path id="right" fill="#C3C3C3" d="M752.6 100.8l86.603-50v100l-86.603 50z"/></g><g id="cube2"><path id="top" fill="#E2E2E2" d="M839.203 150.8l-86.603-50 86.603-50 86.602 50z"/><path id="left" fill="#D8D8D8" d="M752.601 200.8v-100l86.603 50v100z"/><path id="right" fill="#C3C3C3" d="M839.2 150.8l86.603-50v100l-86.603 50z"/></g><g id="cube4"><path id="top" fill="#E2E2E2" d="M1012.403 150.8l-86.603-50 86.603-50 86.602 50z"/><path id="left" fill="#D8D8D8" d="M925.801 200.8v-100l86.603 50v100z"/><path id="right" fill="#C3C3C3" d="M1012.4 150.8l86.603-50v100l-86.603 50z"/></g><g id="cube3"><path id="top" fill="#E2E2E2" d="M925.803 200.8l-86.603-50 86.603-50 86.602 50z"/><path id="left" fill="#D8D8D8" d="M839.201 250.8v-100l86.603 50v100z"/><path id="right" fill="#C3C3C3" d="M925.8 200.8l86.603-50v100l-86.603 50z"/></g></g><g id="P1"><g id="cube1"><path id="top" fill="#E2E2E2" d="M173.603 1032.8L87 982.8l86.603-50 86.602 50z"/><path id="left" fill="#D8D8D8" d="M87.001 1082.8v-100l86.603 50v100z"/><path id="right" fill="#C3C3C3" d="M173.6 1032.8l86.603-50v100l-86.603 50z"/></g><g id="cube2"><path id="top" fill="#E2E2E2" d="M260.203 1082.8l-86.603-50 86.603-50 86.602 50z"/><path id="left" fill="#D8D8D8" d="M173.601 1132.8v-100l86.603 50v100z"/><path id="right" fill="#C3C3C3" d="M260.2 1082.8l86.603-50v100l-86.603 50z"/></g><g id="cube3"><path id="top" fill="#E2E2E2" d="M87.003 1082.8L.4 1032.8l86.603-50 86.602 50z"/><path id="left" fill="#D8D8D8" d="M.401 1132.8v-100l86.603 50v100z"/><path id="right" fill="#C3C3C3" d="M87 1082.8l86.603-50v100L87 1182.8z"/></g><g id="cube4"><path id="top" fill="#E2E2E2" d="M173.603 1132.8L87 1082.8l86.603-50 86.602 50z"/><path id="left" fill="#D8D8D8" d="M87.001 1182.8v-100l86.603 50v100z"/><path id="right" fill="#C3C3C3" d="M173.6 1132.8l86.603-50v100l-86.603 50z"/></g><g id="cube5"><path id="top" fill="#E2E2E2" d="M260.203 1182.8l-86.603-50 86.603-50 86.602 50z"/><path id="left" fill="#D8D8D8" d="M173.601 1232.8v-100l86.603 50v100z"/><path id="right" fill="#C3C3C3" d="M260.2 1182.8l86.603-50v100l-86.603 50z"/></g></g></g></g></svg>