<svg xmlns="http://www.w3.org/2000/svg" width="1918" height="1283" viewBox="0 0 1918 1283">
  <g id_="Page-1" fill="none" fill-rule="evenodd">
    <g id_="plp_animation" fill-rule="nonzero">
      <g id_="P2" transform="translate(1571 26)">
        <g id_="cube4" transform="translate(86)">
          <polygon id_="top" fill="#E2E2E2" points="87.203 100.8 .6 50.8 87.203 .8 173.805 50.8"/>
          <polygon id_="left" fill="#D8D8D8" points=".601 150.8 .601 50.8 87.204 100.8 87.204 200.8"/>
          <polygon id_="right" fill="#C3C3C3" points="87.2 100.8 173.803 50.8 173.803 150.8 87.2 200.8"/>
        </g>
        <g id_="cube5" transform="translate(173 50)">
          <polygon id_="top" fill="#E2E2E2" points="86.802 100.8 .2 50.8 86.802 .8 173.405 50.8"/>
          <polygon id_="left" fill="#D8D8D8" points=".201 150.8 .201 50.8 86.804 100.8 86.804 200.8"/>
          <polygon id_="right" fill="#C3C3C3" points="86.8 100.8 173.402 50.8 173.402 150.8 86.8 200.8"/>
        </g>
        <g id_="cube1" transform="translate(0 50)">
          <polygon id_="top" fill="#E2E2E2" points="86.603 100.8 0 50.8 86.603 .8 173.205 50.8"/>
          <polygon id_="left" fill="#D8D8D8" points=".001 150.8 .001 50.8 86.604 100.8 86.604 200.8"/>
          <polygon id_="right" fill="#C3C3C3" points="86.6 100.8 173.203 50.8 173.203 150.8 86.6 200.8"/>
        </g>
        <g id_="cube2" transform="translate(86 100)">
          <polygon id_="top" fill="#E2E2E2" points="87.203 100.8 .6 50.8 87.203 .8 173.805 50.8"/>
          <polygon id_="left" fill="#D8D8D8" points=".601 150.8 .601 50.8 87.204 100.8 87.204 200.8"/>
          <polygon id_="right" fill="#C3C3C3" points="87.2 100.8 173.803 50.8 173.803 150.8 87.2 200.8"/>
        </g>
        <g id_="cube3" transform="translate(173 150)">
          <polygon id_="top" fill="#E2E2E2" points="86.802 100.8 .2 50.8 86.802 .8 173.405 50.8"/>
          <polygon id_="left" fill="#D8D8D8" points=".201 150.8 .201 50.8 86.804 100.8 86.804 200.8"/>
          <polygon id_="right" fill="#C3C3C3" points="86.8 100.8 173.402 50.8 173.402 150.8 86.8 200.8"/>
        </g>
      </g>
      <g id_="L" transform="translate(666)">
        <g id_="cube1">
          <polygon id_="top" fill="#E2E2E2" points="86.603 100.8 0 50.8 86.603 .8 173.205 50.8"/>
          <polygon id_="left" fill="#D8D8D8" points=".001 150.8 .001 50.8 86.604 100.8 86.604 200.8"/>
          <polygon id_="right" fill="#C3C3C3" points="86.6 100.8 173.203 50.8 173.203 150.8 86.6 200.8"/>
        </g>
        <g id_="cube2" transform="translate(86 50)">
          <polygon id_="top" fill="#E2E2E2" points="87.203 100.8 .6 50.8 87.203 .8 173.805 50.8"/>
          <polygon id_="left" fill="#D8D8D8" points=".601 150.8 .601 50.8 87.204 100.8 87.204 200.8"/>
          <polygon id_="right" fill="#C3C3C3" points="87.2 100.8 173.803 50.8 173.803 150.8 87.2 200.8"/>
        </g>
        <g id_="cube4" transform="translate(259 50)">
          <polygon id_="top" fill="#E2E2E2" points="87.403 100.8 .8 50.8 87.403 .8 174.005 50.8"/>
          <polygon id_="left" fill="#D8D8D8" points=".801 150.8 .801 50.8 87.404 100.8 87.404 200.8"/>
          <polygon id_="right" fill="#C3C3C3" points="87.4 100.8 174.003 50.8 174.003 150.8 87.4 200.8"/>
        </g>
        <g id_="cube3" transform="translate(173 100)">
          <polygon id_="top" fill="#E2E2E2" points="86.803 100.8 .2 50.8 86.803 .8 173.405 50.8"/>
          <polygon id_="left" fill="#D8D8D8" points=".201 150.8 .201 50.8 86.804 100.8 86.804 200.8"/>
          <polygon id_="right" fill="#C3C3C3" points="86.8 100.8 173.403 50.8 173.403 150.8 86.8 200.8"/>
        </g>
      </g>
      <g id_="P1" transform="translate(0 932)">
        <g id_="cube1" transform="translate(87)">
          <polygon id_="top" fill="#E2E2E2" points="86.603 100.8 0 50.8 86.603 .8 173.205 50.8"/>
          <polygon id_="left" fill="#D8D8D8" points=".001 150.8 .001 50.8 86.604 100.8 86.604 200.8"/>
          <polygon id_="right" fill="#C3C3C3" points="86.6 100.8 173.203 50.8 173.203 150.8 86.6 200.8"/>
        </g>
        <g id_="cube2" transform="translate(173 50)">
          <polygon id_="top" fill="#E2E2E2" points="87.203 100.8 .6 50.8 87.203 .8 173.805 50.8"/>
          <polygon id_="left" fill="#D8D8D8" points=".601 150.8 .601 50.8 87.204 100.8 87.204 200.8"/>
          <polygon id_="right" fill="#C3C3C3" points="87.2 100.8 173.803 50.8 173.803 150.8 87.2 200.8"/>
        </g>
        <g id_="cube3" transform="translate(0 50)">
          <polygon id_="top" fill="#E2E2E2" points="87.003 100.8 .4 50.8 87.003 .8 173.605 50.8"/>
          <polygon id_="left" fill="#D8D8D8" points=".401 150.8 .401 50.8 87.004 100.8 87.004 200.8"/>
          <polygon id_="right" fill="#C3C3C3" points="87 100.8 173.603 50.8 173.603 150.8 87 200.8"/>
        </g>
        <g id_="cube4" transform="translate(87 100)">
          <polygon id_="top" fill="#E2E2E2" points="86.603 100.8 0 50.8 86.603 .8 173.205 50.8"/>
          <polygon id_="left" fill="#D8D8D8" points=".001 150.8 .001 50.8 86.604 100.8 86.604 200.8"/>
          <polygon id_="right" fill="#C3C3C3" points="86.6 100.8 173.203 50.8 173.203 150.8 86.6 200.8"/>
        </g>
        <g id_="cube5" transform="translate(173 150)">
          <polygon id_="top" fill="#E2E2E2" points="87.203 100.8 .6 50.8 87.203 .8 173.805 50.8"/>
          <polygon id_="left" fill="#D8D8D8" points=".601 150.8 .601 50.8 87.204 100.8 87.204 200.8"/>
          <polygon id_="right" fill="#C3C3C3" points="87.2 100.8 173.803 50.8 173.803 150.8 87.2 200.8"/>
        </g>
      </g>
    </g>
  </g>
</svg>
