<svg xmlns="http://www.w3.org/2000/svg" width="600" height="600" viewBox="0 0 600 600">
  <g id="Page-1" fill="none" fill-rule="evenodd">
    <rect id="frame" width="599" height="599" x=".5" y=".5" stroke="#979797"/>
    <g id="player" transform="translate(283 282)">
      <path id="Rectangle-3" fill="#D8D8D8" stroke="#979797" d="M1.99343036 25.5154465C1.42453501 26.4622473 1.73088795 27.6909619 2.67768881 28.2598572 3.62448967 28.8287526 4.85320421 28.5223996 5.42209956 27.5755988L16.3711854 9.35325994C16.9400807 8.40645909 16.6337278 7.17774454 15.6869269 6.60884919 14.740126 6.03995384 13.5114115 6.34630679 12.9425162 7.29310764L1.99343036 25.5154465zM24.1561403 23.201066C24.9897695 23.9257288 26.2530147 23.8373941 26.9776775 23.0037649 27.7023403 22.1701357 27.6140056 20.9068904 26.7803764 20.1822277L20.8390396 15.0175024C20.0054104 14.2928396 18.7421652 14.3811743 18.0175024 15.2148035 17.2928396 16.0484326 17.3811743 17.3116779 18.2148035 18.0363407L24.1561403 23.201066z"/>
      <path id="Rectangle-3" fill="#D8D8D8" stroke="#979797" d="M18.4966277,24.5130518 C17.4798661,24.9446415 17.0054906,26.1187622 17.4370802,27.1355238 C17.8686699,28.1522854 19.0427906,28.6266609 20.0595522,28.1950713 L27.3060872,25.1190997 C28.3228488,24.68751 28.7972243,23.5133893 28.3656346,22.4966277 C27.9340449,21.4798661 26.7599243,21.0054906 25.7431627,21.4370802 L18.4966277,24.5130518 Z"/>
      <path id="Rectangle" fill="#D8D8D8" stroke="#515151" d="M6,22.5 C3.51471863,22.5 1.5,24.5147186 1.5,27 C1.5,29.4852814 3.51471863,31.5 6,31.5 L18,31.5 C20.4852814,31.5 22.5,29.4852814 22.5,27 C22.5,24.5147186 20.4852814,22.5 18,22.5 L6,22.5 Z"/>
      <path id="Rectangle-4" fill="#000" d="M17,0 C17.5522847,-1.01453063e-16 18,0.44771525 18,1 L18,24 C18,24.5522847 17.5522847,25 17,25 C16.4477153,25 16,24.5522847 16,24 L16,1 C16,0.44771525 16.4477153,1.01453063e-16 17,0 Z"/>
      <path id="Rectangle-2" fill="#8B8B8B" d="M12,22 C14.7614237,22 17,24.2385763 17,27 C17,29.7614237 14.7614237,32 12,32 C9.23857625,32 7,29.7614237 7,27 C7,24.2385763 9.23857625,22 12,22 Z"/>
    </g>
  </g>
</svg>
