<?xml version="1.0" encoding="UTF-8" standalone="no"?>
<!DOCTYPE svg PUBLIC "-//W3C//DTD SVG 1.1//EN" "http://www.w3.org/Graphics/SVG/1.1/DTD/svg11.dtd">
<svg width="100%" height="100%" viewBox="0 0 113 84" version="1.1" xmlns="http://www.w3.org/2000/svg" xmlns:xlink="http://www.w3.org/1999/xlink" xml:space="preserve" xmlns:serif="http://www.serif.com/" style="fill-rule:evenodd;clip-rule:evenodd;stroke-linejoin:round;stroke-miterlimit:1.41421;">
    <g id="Artboard1" transform="matrix(1,0,0,1,-94.7637,-111.191)">
        <rect x="94.764" y="111.191" width="112.959" height="83.217" style="fill:none;"/>
        <g id="Right" transform="matrix(1,0,0,-1,21.1925,308.043)">
            <g id="Down" transform="matrix(0.369822,0,3.32517e-18,1.375,98.3339,-115.571)">
                <path d="M90.899,208.71C83.498,200.805 82.833,192.978 90.899,185.252L125.257,186.101C125.257,186.101 125.257,180.364 125.257,176.64C125.257,176.154 126.379,175.719 128.072,175.549C129.764,175.379 131.671,175.509 132.856,175.876C147.774,180.495 180.649,190.673 194.58,194.987C198.274,196.13 198.274,197.831 194.58,198.975C180.684,203.278 147.938,213.416 132.968,218.051C131.778,218.42 129.861,218.549 128.164,218.376C126.468,218.203 125.352,217.764 125.369,217.276C125.503,213.515 125.708,207.739 125.708,207.739L90.899,208.71Z" style="fill:#afafff;"/>
            </g>
            <g id="Up" transform="matrix(0.284024,0,1.94808e-18,0.805556,110.394,-2.80018)">
                <path d="M83.264,213.887C76.235,202.705 76.339,191.129 80.915,179.454L127.606,181.318C127.606,181.318 126.44,173.7 125.578,168.065C125.447,167.212 126.879,166.424 129.133,166.11C131.387,165.795 133.959,166.024 135.521,166.678C152.293,173.702 184.125,187.032 198.939,193.236C203.54,195.162 203.554,197.975 198.973,199.908C184.233,206.125 152.584,219.474 135.959,226.486C134.408,227.14 131.847,227.372 129.592,227.064C127.338,226.755 125.893,225.974 126.001,225.122C126.689,219.684 127.606,212.437 127.606,212.437L83.264,213.887Z" style="fill:#f3afff;"/>
            </g>
        </g>
        <g id="Light" transform="matrix(-1,0,0,-1,279.673,308.043)">
            <g id="Down1" serif:id="Down" transform="matrix(0.369822,0,3.32517e-18,1.375,98.3339,-115.571)">
                <path d="M90.899,208.71C83.498,200.805 82.833,192.978 90.899,185.252L125.257,186.101C125.257,186.101 125.257,180.364 125.257,176.64C125.257,176.154 126.379,175.719 128.072,175.549C129.764,175.379 131.671,175.509 132.856,175.876C147.774,180.495 180.649,190.673 194.58,194.987C198.274,196.13 198.274,197.831 194.58,198.975C180.684,203.278 147.938,213.416 132.968,218.051C131.778,218.42 129.861,218.549 128.164,218.376C126.468,218.203 125.352,217.764 125.369,217.276C125.503,213.515 125.708,207.739 125.708,207.739L90.899,208.71Z" style="fill:#afafff;"/>
            </g>
            <g id="Up1" serif:id="Up" transform="matrix(0.284024,0,1.94808e-18,0.805556,110.694,-2.80018)">
                <path d="M83.264,213.887C76.235,202.705 76.339,191.129 80.915,179.454L127.606,181.318C127.606,181.318 126.44,173.7 125.578,168.065C125.447,167.212 126.879,166.424 129.133,166.11C131.387,165.795 133.959,166.024 135.521,166.678C152.293,173.702 184.125,187.032 198.939,193.236C203.54,195.162 203.554,197.975 198.973,199.908C184.233,206.125 152.584,219.474 135.959,226.486C134.408,227.14 131.847,227.372 129.592,227.064C127.338,226.755 125.893,225.974 126.001,225.122C126.689,219.684 127.606,212.437 127.606,212.437L83.264,213.887Z" style="fill:#f3afff;"/>
            </g>
        </g>
    </g>
</svg>
