<?xml version="1.0" encoding="UTF-8" standalone="no"?>
<!DOCTYPE svg PUBLIC "-//W3C//DTD SVG 1.1//EN" "http://www.w3.org/Graphics/SVG/1.1/DTD/svg11.dtd">
<svg width="100%" height="100%" viewBox="0 0 113 84" version="1.1" xmlns="http://www.w3.org/2000/svg" xmlns:xlink="http://www.w3.org/1999/xlink" xml:space="preserve" xmlns:serif="http://www.serif.com/" style="fill-rule:evenodd;clip-rule:evenodd;stroke-linejoin:round;stroke-miterlimit:1.41421;">
    <rect id="Artboard1" x="0" y="0" width="112.959" height="83.217" style="fill:none;"/>
    <g id="Right">
        <path id="Down" d="M58.379,25.447c-2.737,10.869 -2.983,21.631 0,32.254l12.707,-1.167c0,0 0,7.888 0,13.01c0,0.668 0.415,1.266 1.04,1.5c0.626,0.233 1.332,0.054 1.77,-0.45c5.517,-6.351 17.675,-20.347 22.827,-26.278c1.366,-1.572 1.366,-3.911 0,-5.484c-5.139,-5.916 -17.249,-19.856 -22.786,-26.23c-0.44,-0.506 -1.149,-0.685 -1.776,-0.447c-0.628,0.238 -1.04,0.842 -1.034,1.513c0.05,5.172 0.125,13.113 0.125,13.113l-12.873,-1.334Z" style="fill:#afafff;"/>
        <path id="Up" d="M60.472,27.355c-1.997,9.007 -1.967,18.332 -0.668,27.737l13.262,-1.501c0,0 -0.331,6.136 -0.576,10.675c-0.037,0.688 0.369,1.322 1.009,1.576c0.641,0.253 1.371,0.069 1.815,-0.458c4.764,-5.658 13.804,-16.396 18.012,-21.394c1.307,-1.552 1.311,-3.818 0.01,-5.374c-4.187,-5.009 -13.176,-15.762 -17.898,-21.41c-0.44,-0.527 -1.168,-0.715 -1.808,-0.466c-0.64,0.249 -1.051,0.878 -1.02,1.564c0.195,4.38 0.456,10.218 0.456,10.218l-12.594,-1.167Z" style="fill:#f3afff;"/>
    </g>
    <g id="Light">
        <path id="Down1" serif:id="Down" d="M52.959,25.447c2.737,10.869 2.983,21.631 0,32.254l-12.707,-1.167c0,0 0,7.888 0,13.01c0,0.668 -0.415,1.266 -1.04,1.5c-0.626,0.233 -1.332,0.054 -1.77,-0.45c-5.517,-6.351 -17.675,-20.347 -22.827,-26.278c-1.366,-1.572 -1.366,-3.911 0,-5.484c5.139,-5.916 17.249,-19.856 22.786,-26.23c0.44,-0.506 1.149,-0.685 1.776,-0.447c0.628,0.238 1.04,0.842 1.034,1.513c-0.05,5.172 -0.125,13.113 -0.125,13.113l12.873,-1.334Z" style="fill:#afafff;"/>
        <path id="Up1" serif:id="Up" d="M50.566,27.355c1.996,9.007 1.967,18.332 0.667,27.737l-13.261,-1.501c0,0 0.331,6.136 0.576,10.675c0.037,0.688 -0.37,1.322 -1.01,1.576c-0.64,0.253 -1.371,0.069 -1.814,-0.458c-4.764,-5.658 -13.805,-16.396 -18.013,-21.394c-1.306,-1.552 -1.31,-3.818 -0.009,-5.374c4.186,-5.009 13.175,-15.762 17.897,-21.41c0.441,-0.527 1.168,-0.715 1.809,-0.466c0.64,0.249 1.05,0.878 1.02,1.564c-0.196,4.38 -0.456,10.218 -0.456,10.218l12.594,-1.167Z" style="fill:#f3afff;"/>
    </g>
</svg>
