<svg xmlns:svg="http://www.w3.org/2000/svg" xmlns="http://www.w3.org/2000/svg" viewBox="0 0 1516.25 950" height="100%" width="100%" xml:space="preserve" version="1.1">
  <path class="fil3 str0" d="m 631.98356,616.57796 c 10.2247,6.35762 10.38318,11.50302 14.0459,21.33612 10.15963,-0.46045 -5.99068,24.53552 4.8547,16.92865 6.47136,0.49147 25.75642,17.40385 13.17031,19.07532 -5.19123,7.38074 -14.69689,10.86192 -21.65452,9.31266 -12.76165,-3.61461 -12.2274,8.54398 -25.20279,4.30829 -0.54384,6.90198 -15.37306,1.41371 -4.98403,9.7996 13.5191,-1.37084 0.28461,15.5405 6.73393,20.26987 8.46557,7.9563 -8.1351,9.22814 -10.49713,1.64836 -9.03958,9.87861 9.54125,27.30335 6.09185,41.7005 8.97939,9.76237 -6.34019,31.72948 -15.85827,39.30268 -11.42992,0.0551 -10.05705,4.13647 -7.85136,14.06179 -0.8133,7.17312 -13.36467,0.22353 -16.09279,3.02023 -6.19292,1.67655 -21.92383,-1.3491 -9.76489,-4.32899 10.69143,-12.03944 -18.1948,-13.55333 -8.86895,-20.49596 -2.13497,-9.08293 10.04107,-21.30531 -0.2471,-26.29646 -11.46823,-1.96188 -21.80689,-20.74842 -15.01006,-25.91242 -8.73473,-12.49486 -24.44307,-15.89789 -27.01919,-30.07263 -16.85468,3.5074 -22.17117,-14.14553 -30.5502,-24.23012 5.61336,-5.21065 8.21464,-18.66538 11.2548,-25.35789 7.63547,-7.50615 -10.80331,-8.359 -8.04758,-11.64862 -7.85868,8.93143 -4.94728,-3.75434 -10.07589,-1.70536 -9.2503,1.7977 -4.6614,-7.05199 -14.98919,-8.22402 -5.54985,-8.33119 -17.6569,3.50858 -23.77355,-2.70909 -14.23848,10.62123 -6.40099,-18.46586 -18.86267,-21.95187 -4.66141,-13.10832 9.92134,-18.65617 7.31097,-30.64812 1.86388,-5.16733 -9.67504,-1.83977 -1.59673,-8.66292 -1.99244,-4.35438 11.87911,-0.32547 9.08009,-9.6467 6.50206,-0.75355 1.32646,-6.82966 4.45246,-10.37399 2.77841,-4.49638 5.48306,-7.03786 12.85899,-7.95966 2.60776,-8.40373 13.57652,-14.47365 15.45661,-25.00439 -5.66017,-12.77522 7.94233,-22.11758 17.15776,-22.75123 8.45655,-9.92898 24.75231,3.97744 34.51459,1.80048 5.0229,-8.03204 -9.06039,-20.94565 7.07231,-23.37048 3.66027,-5.49928 5.33001,-7.56403 10.04961,-9.28108 5.19588,11.76694 1.87034,-9.12632 10.52625,-3.65619 10.1698,-3.78269 12.24835,-6.20475 5.51195,-15.36322 -1.72148,-10.95536 18.88952,2.0899 25.10929,-7.77677 -8.20829,-7.25974 13.1006,-5.59881 16.83952,-0.1216 4.58921,6.07306 7.00651,13.05465 13.01091,16.62336 3.44203,7.2352 -7.68282,9.29012 -9.64348,15.29167 1.75034,6.48097 3.26523,16.75538 -0.42113,21.32216 -7.27561,-3.33915 -12.99632,-6.65237 -13.93473,0.57485 -2.26708,1.79518 1.82849,14.50682 10.30185,13.12327 -4.20454,10.93556 -3.7133,19.46438 8.67582,18.19818 0.10307,7.04716 4.19491,13.96266 11.72045,17.86811 1.20859,11.01532 14.28483,1.78607 17.01112,12.49283 6.25972,0.3711 13.88306,11.85093 4.20129,10.18211 -5.94302,3.64052 -10.38549,5.70228 -6.07537,13.92838 3.23292,2.55089 2.30528,12.99937 0.51454,20.57453 -2.66303,3.73094 1.37,11.86177 3.49373,14.80578 z"></path>
  <path class="fil3 str0" d="m 870.12806,160.27232 c 13.1509,0.9602 26.13566,15.19923 41.72953,8.08488 10.06327,-0.88963 19.25951,-7.0153 27.75477,-4.63017 10.62595,-2.91254 20.46174,1.23576 32.89227,-1.09492 6.08428,6.9935 12.71848,13.57764 15.90214,21.06566 6.43258,2.53087 -4.1883,9.80201 -3.18751,16.20589 -1.5288,7.10378 10.18994,-0.85753 2.41767,9.71152 0.32076,22.00332 -28.60895,-21.9067 -29.66653,0.72754 5.17049,5.38087 -6.00549,8.53125 -6.06548,14.83288 -9.41554,-2.40999 -0.20702,18.53778 -12.62662,19.57398 -4.27256,13.08318 -8.07787,29.46365 1.11809,40.71934 -13.85242,2.4669 -32.17446,4.38048 -30.18343,23.0315 -8.15294,10.2522 -14.63531,14.85737 -2.23953,23.73953 8.28712,15.20136 20.90745,1.61573 34.72516,7.45342 0.90478,10.55412 2.66741,15.24926 14.4778,18.74279 -8.42985,11.38156 10.77557,21.47715 20.92808,19.27363 10.95084,2.74765 21.40746,8.20194 31.10323,10.91125 0.6343,4.20007 13.7399,-6.87468 13.421,4.7275 -6.0597,7.63776 -11.026,15.51152 -22.4594,19.16417 -2.09323,5.49506 -15.21149,6.94863 -10.48339,15.68104 1.06087,10.45264 7.98717,14.69585 12.57539,21.49565 -2.86985,9.56066 10.2627,23.7617 17.0154,12.38542 11.4054,-4.5688 12.2871,8.92346 6.7317,16.90408 -10.8329,0.54422 -6.0229,20.56801 -18.3089,14.98097 -1.1848,-7.00013 -11.86931,0.84772 -10.36605,0.39583 1.78843,6.43196 2.52788,15.33948 11.04575,18.1171 -3.141,13.57988 -23.50503,4.69228 -33.83752,8.86325 -7.3978,-4.0735 -25.53925,-0.7767 -13.50804,-12.60652 3.81669,-5.32601 -4.8205,-12.5934 0.37723,-17.01768 -2.42816,-11.58197 -15.10436,-23.15641 -2.00959,-29.61487 4.56695,-15.61794 -11.72346,-9.70304 -17.55377,-8.09208 1.01116,8.86152 -23.68125,11.15329 -18.33701,1.55843 14.15918,-4.83539 -4.28028,-13.76441 -13.1211,-11.78506 -4.34669,-8.90196 -11.79463,6.27931 -18.56466,0.99057 1.83487,-8.38603 -5.53885,9.95842 -12.64129,3.94833 -8.39789,3.51773 -5.74194,-9.33723 -15.12539,-0.0124 -13.23625,7.51615 -17.46772,-7.36793 -29.52282,1.11242 -7.33242,-7.17449 -26.09461,-1.19986 -26.48074,-7.03527 -10.27761,-5.91907 -26.8077,10.35098 -37.37592,3.17532 -7.41656,-4.76915 -9.74735,-15.9073 1.33251,-16.00265 -10.80836,-5.20315 -14.1121,-12.16269 -27.27954,-17.18568 -17.08329,-12.32866 -38.23597,0.79811 -55.26885,-7.48109 -14.29957,2.34884 -17.1787,-6.86396 -12.1068,-17.33202 -21.23191,9.97838 -4.44688,-19.99399 -22.18234,-21.34927 -13.60125,-6.99914 4.26545,-36.23699 -17.92068,-23.73802 -11.24229,4.07357 -26.20802,-8.16455 -12.3808,-14.74818 8.32002,-12.33871 -6.00385,-31.71266 13.59227,-35.17599 14.161,1.06729 28.22146,-4.49608 30.3251,-16.69691 10.4868,7.26131 5.09775,-8.05657 11.51624,-10.8862 -0.96822,-18.38541 10.6995,5.95287 12.50409,-11.93845 4.74737,6.09832 14.03047,-2.05694 21.47228,2.0278 14.96735,-1.46721 12.00976,-17.1519 15.94749,-24.664 -0.6796,-4.68124 4.49169,-15.09457 7.74376,-22.58824 6.89939,-6.73125 11.04525,-26.59967 23.10402,-18.25468 7.70798,6.53093 9.81682,2.73954 9.21322,-7.05793 7.13852,7.13209 17.56952,-19.28294 21.43569,2.34412 4.34222,21.5933 10.66538,-14.50199 21.0921,-16.37686 12.29652,-12.0742 26.06068,3.97361 36.16019,-10.0496 7.27604,9.67983 11.66516,-2.18434 21.14961,1.46896 z"></path>
  <path class="fil3 str0" d="m 630.40777,615.23974 c -7.25425,-10.27016 5.10227,-28.95211 -2.95835,-33.21438 -3.4386,-9.33376 2.75759,-14.48245 10.5529,-14.84395 4.55962,-8.28789 -12.21052,-8.23199 -13.55864,-16.8375 -9.52587,3.72998 -13.57103,-8.55797 -20.00941,-12.83123 -2.75333,-6.69613 -3.24615,-13.57458 -14.09036,-13.04588 -0.71801,-8.91034 5.30891,-16.97568 -6.18202,-19.1989 -4.89881,-7.25591 -3.13731,-18.59488 7.65357,-11.9548 12.85884,4.39785 0.72224,-17.34189 7.31014,-21.06256 2.07697,-8.46881 9.42794,-8.1155 8.18919,-17.11496 10.60015,-5.43087 14.7628,-16.526 22.00527,-7.72937 8.80529,6.85272 17.21838,-6.79791 24.06553,-11.02457 5.31175,-0.48295 15.97027,6.5418 24.35588,4.89728 0.71966,-8.17856 15.56469,-2.42217 17.41388,1.84965 6.79299,7.58065 6.67434,-3.2205 15.3085,-1.90685 10.61137,-1.28385 14.68274,-2.72663 27.89857,-0.12644 8.88289,-7.26074 29.2993,-7.75217 21.12932,8.31996 -3.36454,9.77587 -12.34537,1.55682 -21.33196,8.8282 -6.6812,0.77455 -22.6524,-1.95038 -9.15538,4.20365 -0.10987,6.14738 11.60309,13.51898 1.70813,14.13497 3.57838,2.19223 1.27062,13.34269 12.24245,6.07279 16.37895,-2.40781 13.68622,6.58728 14.25914,16.68898 1.34437,13.01473 27.83068,8.36515 32.01346,-2.99095 9.93919,-13.16661 20.38307,6.30852 9.96356,12.99372 -4.22534,2.71017 4.70524,14.14659 2.08303,16.48507 -10.07656,7.97927 15.29418,4.97134 20.05607,0.17125 14.782,-12.25608 6.51601,11.8457 19.41238,12.97724 2.56335,8.83343 12.61521,27.3468 1.85875,17.54877 -7.56395,-1.0424 -9.074,14.45291 -17.39903,3.15548 -10.79919,-2.56932 -16.74864,2.51147 -8.27947,11.19861 -2.11739,6.30115 -8.50145,6.94404 -9.6006,13.43825 -8.58175,4.33931 -28.0377,-17.62046 -30.06823,-1.57867 -7.59563,0.0953 -12.10233,10.4935 -15.56991,13.34559 -7.91199,-5.98643 -9.92258,7.10745 -10.33869,13.25554 5.5133,13.16263 -14.49382,21.71252 -2.03097,32.09083 12.95346,15.28003 -18.1301,1.13673 -12.48801,15.74346 4.89094,2.94458 12.27542,32.3326 -5.1037,30.23484 -9.79285,-7.76498 -16.6598,1.82814 -14.27475,10.39253 -1.9894,13.19423 13.77755,13.3906 15.84974,10.3671 0.36765,6.63585 17.41692,-2.49586 15.11658,10.33169 8.97332,3.44936 15.15282,-3.78091 14.48326,-12.47205 6.30464,-9.42634 24.56098,-3.34577 30.54335,2.1525 2.98114,10.50216 -4.00335,13.87076 -5.67546,23.99247 -4.41998,13.12339 9.49768,16.72456 18.68555,27.03635 -1.10463,15.33805 8.48399,29.23785 17.32504,41.43664 10.50787,3.95267 9.96148,14.15197 8.36348,24.38834 -2.4675,6.3887 19.66788,8.49657 6.18627,14.06862 -1.71953,-4.5481 -11.37593,2.59801 -11.48715,7.59345 -5.21185,19.99548 14.93677,1.26752 21.67318,5.82316 7.73461,11.99309 -21.13194,5.94747 -19.57278,20.00416 -9.30265,3.02761 -15.85343,5.90876 -23.37706,-2.49749 -16.54629,6.03208 -21.68123,-22.58139 -37.19954,-18.11653 -7.49123,9.19373 4.06152,29.83573 -11.37057,30.90476 -8.49239,2.45593 -32.19374,19.04362 -33.6142,3.33682 -8.17922,-5.51801 -2.68452,-20.41123 -12.57321,-18.8733 2.64269,-6.2117 -11.25418,-0.40696 -8.6098,-6.32971 -8.932,-1.12672 -14.87193,-15.44069 -25.51069,-14.11637 -7.07287,13.73088 -10.65322,-3.83539 -7.20356,-12.22699 9.22953,-8.39872 -4.23543,-25.33989 -16.66241,-22.8148 -6.28952,-8.64313 -10.70334,-11.97952 -19.04786,-18.32764 -11.51944,-4.7311 8.3603,-24.38366 -2.64768,-27.33891 -8.79825,1.60805 -18.6803,-3.50831 -17.55058,-16.17959 -0.0728,-7.76056 -16.98276,-34.02945 -2.23222,-28.13691 8.65454,7.09116 13.01916,-1.54672 5.16736,-9.04421 4.94083,-10.34883 0.59146,-15.46558 -8.01352,-19.64716 5.79791,-3.60127 13.33871,-5.61081 20.94327,-6.69009 1.21752,-6.65118 15.00004,0.0979 17.69501,-3.93479 10.41865,3.29795 15.62512,-10.5125 22.27101,-12.03349 -5.82375,-10.35142 -16.75012,-16.34738 -22.07688,-14.89551 -0.27774,-7.79696 5.588,-16.86013 -3.17323,-21.63163 -0.32922,-8.62595 -6.12858,-11.61183 -13.74494,-18.69454 z"></path>
  <path class="fil3 str0" d="m 1337.5305,24.277739 c 11.908,-0.238459 18.9535,15.869988 28.4579,17.455988 6.4115,5.645438 -0.7927,17.958855 -2.9083,25.020494 -14.2214,-0.835909 -9.5041,18.490317 -1.4953,17.294495 -11.6952,13.154084 10.0822,20.867734 10.0761,29.949714 -0.964,9.67319 19.2641,-1.92267 8.1411,11.58055 6.5938,8.68402 31.4203,0.80509 22.1558,16.99942 3.2132,8.77634 -4.8792,14.4235 -12.5787,8.40249 -4.9994,10.2888 -0.8212,18.39309 9.283,23.13164 9.5662,10.71679 25.7083,17.69207 29.5034,31.45847 1.8489,10.11158 21.5317,2.96606 15.0689,20.12802 7.2768,3.2085 5.9372,8.43099 4.5987,15.00076 4.7171,2.70315 -5.6984,9.77294 7.2409,11.49831 7.7504,7.72044 24.7454,10.64424 27.2196,16.27246 -3.8933,-8.87047 -3.3804,1.65867 -7.3875,2.98334 0.4142,-8.00018 -15.7975,-7.64609 -22.795,-5.7827 -8.5198,11.7232 2.5274,-8.63747 -9.5101,-2.18436 7.6143,-9.93163 -11.3233,-7.69004 -11.4195,-17.80458 -8.9614,-2.59492 -8.9962,-6.92301 -11.6063,-5.46636 -12.696,6.60043 -8.1953,-14.93013 -16.8903,-6.50824 -5.6155,-8.23567 -5.6382,7.97803 -7.1268,-6.10802 -6.3843,2.70032 -19.075,-3.27938 -9.8957,-8.16421 -6.1493,-2.10377 -9.9621,5.16309 -11.4087,4.68757 7.4759,7.1463 -9.8563,-4.24336 -4.3407,5.24513 -1.6528,7.87477 -13.8366,4.28977 -16.2954,14.63475 -5.9412,0.57116 -11.9115,-4.14134 -16.0599,-0.60961 4.4428,11.20185 -20.6016,8.28565 -6.7279,19.7779 6.6473,12.47296 8.8132,27.97811 11.1314,41.25282 18.996,1.16216 17.7395,29.13161 -3.3277,23.36367 -10.0679,1.11756 -15.0245,-9.98671 -19.782,-2.62898 -3.303,-7.03661 -14.9929,9.97289 -12.671,-3.18614 -10.084,-0.001 -19.2304,-19.99033 -32.1492,-5.36487 -7.2061,8.14991 -34.4007,-2.69413 -21.8585,12.87124 12.7904,11.72445 5.1106,28.15702 -9.7092,23.95304 -8.4731,5.23102 -5.7815,25.56031 -20.3124,13.93209 -6.8345,2.39566 -13.0425,15.46643 -25.0698,16.30952 -8.6679,0.11623 -21.1447,1.57824 -26.3937,10.60776 -12.857,4.75079 -34.3053,12.15805 -46.2101,7.96987 -5.0962,-6.95954 -20.1896,-4.6035 -28.6454,-5.72451 4.3981,-6.27437 -14.7893,-1.0027 -0.8769,-6.99176 9.6947,-11.33618 8.7071,-29.71274 9.933,-38.54207 -4.2753,-8.46131 -23.6815,7.87422 -19.3684,-12.08935 2.547,-5.75024 -2.8159,-12.12034 5.2357,-11.82501 4.0543,-6.67007 -9.3951,-10.23312 2.7144,-8.75393 -5.6777,-4.50695 -13.17,-1.86019 -1.212,-7.91033 14.0779,-8.6848 23.2916,-16.46032 35.8732,-12.10333 4.0349,-10.86076 17.9166,3.91581 11.0343,-8.86637 -2.521,-7.81255 15.4836,-5.34726 2.4019,-12.65876 5.1094,-10.0489 -20.9833,2.13335 -5.7587,-9.57592 9.8997,-4.11588 10.72,-9.74037 6.2971,-15.14182 13.4946,-9.35862 -8.7885,-14.70695 -9.9611,-24.55869 -3.0493,-4.06985 -18.8761,4.88743 -7.8104,-5.30449 11.8772,-2.73688 -12.1983,-9.59811 -1.3688,-16.26196 -2.0797,-12.01534 -15.4495,-19.53436 -24.321,-11.70964 0.8305,8.21525 -18.8495,1.18673 -25.6651,3.45836 -6.943,-3.42588 -5.8209,-16.47501 -16.7885,-15.52436 -1.2356,-11.30847 -15.0582,-0.85025 -21.6861,-4.71566 -5.6838,-7.96483 4.7891,-14.71525 -2.5105,-25.56498 7.8302,-1.8781 13.2758,-7.62224 19.4106,-10.21483 5.2315,-6.43118 11.5501,10.9405 17.8063,0.45088 6.5126,-3.96708 9.3416,-6.30682 9.5316,-13.09236 18.7358,2.79692 41.3679,12.15614 57.5512,-3.44809 17.6995,-12.78118 43.2398,-6.91894 58.4851,6.71848 9.955,12.05358 30.8768,4.51265 36.3306,21.79103 18.9833,11.21885 7.6176,-25.6814 3.0153,-29.72029 -11.9104,-3.03894 -18.3935,-19.02515 -15.5028,-32.260022 3.2708,-15.51936 0.7615,-29.141157 0.3361,-41.611648 6.688,1.204291 16.4964,-7.043063 19.9265,-2.521406 8.8115,-0.915563 15.1555,-11.543936 23.436,-17.599122 6.151,-1.84928 10.4072,-1.811483 16.2011,4.390273 14.8281,4.265357 21.2469,-8.709445 36.4457,-8.540802 6.5815,-8.112321 13.8073,-0.69935 22.5629,-1.950954 z"></path>
  <a xlink:href="/lokalne-celice/gorenjska">
  <path class="fil3 str0" d="m 341.26323,241.18483 c 17.661,2.97083 29.87458,21.0477 46.93153,23.97309 12.56309,-12.85011 37.366,-1.55781 46.08449,10.33815 2.81717,15.81035 16.67471,23.68117 28.87147,15.41458 11.6169,-0.6447 20.17027,8.84488 32.69378,-0.6748 13.21849,6.16608 23.64733,8.94989 39.01635,2.75384 13.4179,-2.47624 32.24397,-9.61533 30.21963,5.34029 3.99434,7.98855 16.604,6.1853 22.80278,10.42763 15.30951,-21.39671 24.3121,15.16558 30.5164,26.01209 6.74789,20.2268 39.26767,-7.87257 31.0998,20.38083 -0.075,14.91519 24.23371,15.34426 15.38879,33.73165 10.01827,-1.32176 16.96306,-0.0747 8.54041,10.34284 18.78382,15.55533 44.21502,3.91649 67.26077,9.97283 9.28687,8.19123 30.46034,15.91222 27.72226,21.98922 -8.92873,7.51457 -23.04399,5.74285 -36.68222,9.81539 -9.12212,-1.83022 -25.96294,-2.12532 -29.54308,5.18142 -7.82417,-0.57492 -14.58329,-13.66714 -24.13808,-7.72017 -3.85807,8.63398 -20.12516,-3.3582 -24.32025,-2.35882 -8.75923,8.1887 -19.22297,18.60159 -29.89606,8.68907 -1.87374,-2.64728 -25.23837,23.09414 -25.59972,2.64999 -5.51075,-10.76103 -26.79165,-14.91777 -24.72084,-4.4864 -10.15652,5.43883 -32.37703,-2.77208 -17.64808,15.024 -5.00349,4.90984 -18.07164,8.05782 -19.59316,13.44873 -1.91666,-3.88954 -22.19663,7.81065 -19.27225,18.81065 10.35655,18.44047 -17.56079,6.70383 -28.04953,5.048 -12.38821,5.98613 -27.7327,12.58125 -24.09103,30.83196 -5.12509,15.35688 -19.69754,20.25275 -25.53684,29.0702 -4.67224,4.41061 -0.8786,13.32038 -12.01111,17.95108 -11.53593,3.10692 6.31316,12.90172 -4.2363,23.99626 -18.99765,9.6701 21.78735,40.78759 -5.75331,35.16833 -11.83091,-8.23978 -25.20245,3.91005 -29.16325,-14.34105 -15.08978,-5.7115 -25.25695,-16.75885 -36.84649,-22.85285 -11.14573,-10.1431 -17.31371,-19.94276 -30.7349,-26.01027 2.36736,-7.87093 -11.81712,-9.91711 0.27751,-15.58397 -1.50729,-12.66971 0.17633,-18.02844 2.58346,-22.95776 -11.13369,-6.13292 -2.62363,-14.12889 4.31748,-8.55012 0.54152,-9.44543 16.21121,-1.29955 8.31668,-14.48297 1.20563,-13.71128 -1.6715,-19.69712 -7.77793,-31.29202 4.98965,-1.72265 1.94912,-17.5189 11.47287,-17.74225 9.71268,-10.99838 31.74779,0.11936 33.56928,-21.55767 17.0033,-10.96731 0.99236,-26.46358 -13.65518,-22.316 -14.25047,4.47165 -31.22325,8.89691 -44.3078,2.19081 -15.64194,-1.86379 -28.37967,-13.92616 -41.96386,-19.77374 -7.93703,-10.60932 -16.64915,-21.65931 -2.3789,-31.05779 -8.45794,-16.33917 13.42823,-20.55955 23.08999,-25.49205 12.70378,-2.27253 20.15411,-13.92019 6.69092,-20.12689 3.6378,-19.28762 -20.97179,-15.89743 -29.34892,-28.11736 -8.00852,-5.07415 -37.0256,20.27372 -24.5393,-3.55984 4.67425,-12.07252 10.03387,-23.02255 7.56717,-35.74307 9.56635,-3.78734 0.96885,-23.17843 15.44908,-11.10176 15.02468,-5.49631 27.07404,17.53482 38.41221,-0.14825 12.44475,6.86954 20.55343,-4.9699 32.91328,-0.50506 z"></path>
    <g class="tooltip">
      <rect x="401" y="334" width="200" height="54" rx="7" fill="black"></rect>
      <text x="500" y="370" font-family="Arial" font-size="22px" text-anchor="middle" fill="white">Gorenjska</text>
    </g>
  </a>
  <path class="fil3 str0" d="m 987.45968,170.03985 c 13.41512,-5.44647 4.69037,22.27397 17.90432,15.63215 5.1246,-7.41354 12.017,5.1874 15.0122,-5.12337 5.4237,-1.49125 8.7359,-9.72136 15.2258,-3.27868 5.9864,3.51918 14.6505,-2.99835 19.9283,0.85939 -0.5366,7.21686 17.318,5.97781 12.0899,17.21797 8.9181,5.79189 16.9029,0.49356 25.3512,2.42359 9.5977,1.9643 4.0801,-7.99387 15.3988,-7.36333 4.9471,1.5954 19.2806,11.74843 12.2824,19.7002 1.1097,7.6469 14.0485,9.79136 0.3355,14.55306 -3.325,9.18995 15.9057,-6.40638 12.8066,7.88428 3.3119,4.74979 21.8906,12.18854 8.7435,17.24554 -0.8417,5.2513 4.3727,5.33182 0.4916,8.56729 7.1334,5.93721 -14.6511,6.88093 -11.643,15.75449 7.0866,-0.64703 12.5122,-5.41203 11.0628,4.75248 12.4027,4.67554 -12.3007,5.48117 -2.5894,14.51221 4.5707,7.81516 -10.9717,-6.56418 -11.9445,4.68401 -8.5127,0.66692 -14.9783,-5.78805 -23.0604,5.19231 -4.9114,4.39923 -31.3364,13.7838 -11.9947,12.8225 1.5433,4.8182 -12.4935,0.36335 -1.2191,6.00352 -0.5682,8.62822 -9.452,5.55968 -5.3034,14.29147 -6.1125,14.08498 8.1847,15.62146 16.5791,11.15441 4.2086,7.2893 -0.178,13.29324 -0.4003,22.75367 2.244,9.46047 -11.1505,21.02189 -12.01,23.21935 10.9157,-3.45296 0.6294,8.38881 11.3107,3.57634 8.4595,-3.29253 16.0717,3.35365 21.1219,3.49484 5.5639,7.96651 24.8603,-1.43597 17.8464,15.22549 0.9637,7.56103 -11.4001,23.87503 -19.3425,15.60419 4.8998,-11.8498 -12.3468,1.2896 -10.9515,-6.68851 -9.3428,2.48073 -20.4547,-5.82664 -26.919,1.87025 -3.6632,0.35827 -9.9624,4.70083 -7.1901,7.89044 2.6067,2.9431 3.1846,12.47492 -1.6346,12.84041 -1.2509,4.47758 -6.1509,8.26614 -11.3911,10.31813 -8.8744,4.89319 5.6998,10.87808 -7.1371,14.04403 2.2985,5.51683 7.9882,4.46129 6.5356,9.67824 0.5482,5.01029 -5.4026,10.35541 0.5022,14.55311 -0.9394,6.78594 8.3864,3.34531 3.7778,10.42488 6.5097,6.37089 10.1456,0.90924 14.4004,3.35511 0.4164,10.87523 6.491,5.27427 11.2094,9.11848 2.1652,1.05342 2.5159,-0.23395 3.9265,3.76693 11.1991,-0.99612 17.1773,11.44607 5.3089,7.17558 -6.6506,6.76544 -19.2965,-0.34736 -20.5189,12.79055 -12.2008,5.03555 -19.8977,16.97584 -32.3919,21.43912 -6.5494,-4.33667 6.678,-6.33412 4.7649,-12.28421 8.2501,-11.44155 -10.4417,-3.53054 -12.0388,-3.91027 -12.5356,7.49619 -2.3187,-16.68701 -13.2505,-16.49781 -1.1133,-7.47702 -8.2248,-11.99591 -13.268,-5.08259 -5.0451,-5.58596 -9.1348,-7.81113 -8.3153,-16.10544 -10.31004,0.4319 -7.94207,-15.27261 -9.64533,-17.6452 5.34713,2.97075 8.28353,-6.69036 12.51193,3.30078 10.3893,-1.893 6.0325,-14.84662 16.4297,-17.18376 4.0558,-7.07132 5.3281,-19.56218 -4.8799,-16.82158 -6.737,8.82004 -15.8723,2.25008 -18.7856,-4.45352 1.0858,-11.53882 -7.1693,-13.36407 -10.52795,-21.18949 -6.69266,-8.95879 -2.74928,-18.37507 5.78228,-20.35817 4.02877,-5.66161 15.18547,-7.99912 19.39337,-15.2461 6.6927,-5.55702 7.4012,-12.9922 -2.9173,-13.17114 -4.118,7.50503 -9.7593,-2.69399 -18.13655,-2.99067 -9.34195,-4.78995 -21.44551,-7.67536 -32.90078,-8.20487 -1.41827,-5.85719 -15.36028,-11.03931 -6.40692,-18.16042 -12.92521,-2.50353 -12.01854,-8.77897 -14.59379,-18.64225 -14.81939,-3.59098 -19.29962,3.81389 -32.02026,-1.78306 -0.77161,-10.37822 -16.21256,-13.44988 -6.5871,-19.42927 9.2731,-6.97234 4.46594,-23.44035 15.48345,-27.81226 7.98405,-2.72107 31.15712,-1.26932 15.99247,-13.7278 -2.30416,-9.99187 0.78119,-21.14148 4.34555,-30.62281 6.76271,-3.46399 5.39129,-9.99638 8.60209,-15.73544 -1.51031,-10.06208 4.77909,-2.44847 6.33402,-12.22699 7.36702,2.17612 2.92307,-9.98381 3.31181,-12.22566 12.43343,-10.29796 21.62995,19.49982 30.28259,7.57056 -0.98122,-8.42747 6.22795,-11.15724 -3.66687,-10.85964 -0.6206,-7.5131 8.76262,-14.62344 5.33969,-18.59545 -7.83652,-0.75286 -3.44618,-15.77259 -13.84575,-15.17586 -7.50445,-8.85937 4.39233,-9.15984 6.21119,-2.74395 3.35004,-0.53661 2.43029,3.69333 5.49134,4.07822 z"></path>
  <path class="fil3 str0" d="m 932.10858,844.07403 c 6.66374,11.87915 20.83157,24.35213 33.97289,29.40885 3.05707,5.13316 -15.13914,10.8901 -15.11155,21.27882 -16.6216,4.23545 -38.55966,-15.20985 -48.3758,9.9323 0.0411,15.74983 -14.43074,5.12634 -18.63695,4.34623 -8.78968,19.28485 -23.23992,-9.10853 -33.69942,-14.2714 -14.88655,-3.56582 -6.63376,-19.05677 -22.14564,-19.65598 -4.48405,-15.97438 34.24332,-11.16836 17.30076,-25.0048 -12.82024,13.82488 -25.10837,1.76565 -16.04773,-9.31328 5.527,-3.12988 8.25406,-2.19713 12.91095,-4.20576 -4.92888,-6.41446 -13.71629,-9.49028 -8.80374,-20.80167 -1.24247,-14.65935 -22.72989,-24.39145 -25.69262,-43.22527 3.50084,-15.26932 -12.99508,-22.33949 -21.62999,-31.11105 -1.52912,-11.2553 10.11535,-19.95234 6.51535,-27.38053 5.88118,-13.86209 -20.41987,-13.58801 -27.10668,-11.54508 -0.61487,10.49278 -14.55615,25.12553 -18.75341,9.80493 -6.68856,-2.46168 -14.361,-1.00021 -15.59722,-4.62714 -7.7308,11.16105 -18.89416,-10.99846 -12.67688,-17.83928 1.04976,-13.13572 29.45185,8.31848 23.25474,-15.14488 4.07543,-10.2874 -15.69197,-26.98833 3.57152,-24.1769 18.11418,1.12093 -7.66377,-15.78729 1.52863,-22.92979 10.7795,-8.92826 -2.70648,-30.20359 13.02862,-33.32381 4.34664,5.74767 7.83138,-13.42183 17.12638,-10.92908 0.94011,-17.31196 20.96413,4.25856 29.27831,0.79299 3.5617,-4.07068 12.91807,-10.36065 8.15514,-18.64186 -3.44155,-17.48483 23.09149,9.10571 24.19523,-9.19974 9.91915,6.30492 11.92385,-0.0114 2.72468,-11.88602 -3.11647,-7.28023 -10.80607,-15.83299 -12.28105,-21.55876 -7.95213,2.15797 -32.88173,15.11965 -29.05702,2.97809 4.95367,-3.12043 -9.21242,-17.78914 3.73987,-21.50234 -0.0503,-23.41873 -17.15177,-4.30043 -26.88636,1.9294 -19.27068,5.38105 -23.01085,-7.83929 -20.33262,-21.99861 -11.5532,-2.5024 -26.68639,4.53116 -25.04515,-7.37574 13.95712,-2.42846 -22.21716,-24.50778 1.59211,-18.42708 14.0645,-4.51351 26.74406,0.35289 27.93898,-15.82949 -2.83754,-21.03527 12.4177,20.86054 26.80596,1.81873 15.05433,-6.1671 19.56429,2.98704 33.18928,0.87175 12.99525,6.76943 24.16175,0.26921 34.91123,4.79978 11.13122,-2.39623 15.61235,-7.71318 20.22477,-0.17323 7.69859,-0.89422 13.2993,-4.00209 17.08463,-7.48768 0.37483,9.40637 12.12311,-4.57079 16.52716,-0.0426 9.67244,0.85005 29.3265,8.39108 11.88461,14.33059 10.8967,14.58101 19.23988,-6.84434 30.34313,-4.83154 11.78201,-4.4948 8.20761,16.08009 -0.0125,18.903 5.50052,8.85156 12.65694,20.07007 7.1176,28.21648 10.48227,5.84263 -14.58688,25.20042 7.7838,18.62051 13.60732,10.25212 31.43353,-4.79257 45.58452,4.63115 4.0875,7.01557 14.5832,-4.81793 16.2873,9.54197 9.9366,0.64262 1.3854,22.83897 13.8895,16.48724 12.8723,-8.42982 15.0943,3.27846 7.6569,10.37599 -8.2479,10.80785 19.7013,-5.1016 23.9305,-12.75893 10.8661,-2.32338 10.728,-17.46298 23.7831,-12.66856 6.7474,-5.38485 17.6996,-4.958 14.957,2.46213 -5.7151,1.14741 -5.3635,10.33764 -5.1576,13.00186 -6.0178,2.94686 -0.6416,4.1616 -1.0412,8.02786 -5.0245,6.35214 -6.3765,5.32172 -2.8341,10.60033 -3.9371,1.97472 3.5535,14.55543 1.6601,21.90184 -0.6328,5.93705 0.9276,10.28856 -0.8204,14.06822 0.2231,5.27668 -3.5196,8.64432 -7.7363,12.93847 -5.8353,5.42848 -2.9888,14.54114 1.0619,15.68738 -4.494,3.12344 -3.9543,2.54293 -4.5763,9.48589 2.6515,4.79517 19.3033,15.84063 6.0986,14.06133 -8.4805,0.70483 -19.0985,9.22959 -23.3384,14.35304 -7.2025,-9.47371 -18.7141,-10.90934 -29.029,-18.27351 -4.9955,15.82911 -5.2607,5.87198 -14.3972,4.04397 5.1445,11.43269 -14.3121,21.92357 -16.432,10.86518 -10.5153,-1.2053 -16.1965,9.58235 -10.6269,19.59016 -11.87936,4.08967 -26.40227,-2.89403 -36.14856,6.70805 -10.78363,7.9336 -26.70507,13.78616 -39.96779,21.02876 -5.6117,6.63979 -21.83973,15.12838 -12.07505,24.11767 3.01495,5.49521 11.28443,0.73413 9.55497,13.00625 3.74694,5.34781 5.83368,-4.39993 5.98145,1.11388 1.59205,-4.26156 -6.62619,-3.26788 2.60049,-4.56317 -5.44898,10.25315 13.27762,20.69234 3.70341,3.22767 4.06866,-9.80223 18.34662,-22.14353 17.51726,-3.65734 5.38067,1.6681 -11.77078,19.57641 -1.62409,13.11048 6.22992,-4.75025 3.88487,-16.43321 8.75502,-1.15931 7.62461,6.72061 19.88661,27.55885 0.45688,22.93819 -4.85981,-5.47741 -20.42372,-4.28379 -11.44121,2.66634 -11.83417,0.50217 -24.67091,1.88592 -19.78735,14.75779 -24.92114,1.42245 6.43201,18.59551 -2.26378,32.1996 -0.3758,4.20871 1.15188,8.43377 1.00433,12.49008 z"></path>
  <a xlink:href="/lokalne-celice/primorska">
    <path class="fil3 str0" d="m 220.49027,843.21038 c 5.84466,-3.80333 17.00219,-11.79055 31.21501,-5.72529 7.89583,-7.06612 8.59815,-8.17049 10.54498,-17.31127 -10.81957,-7.63664 -22.71761,-13.39428 -3.79246,-14.74968 19.91557,6.86094 52.39651,19.39356 61.03003,-8.22587 15.02594,-5.20051 25.73769,-17.71818 4.19088,-23.55433 -23.91475,-16.14731 -19.94321,-43.81494 -41.55522,-60.93136 -19.75925,-3.1359 -36.29639,-21.16754 -50.3369,-32.38275 -23.69641,6.87975 -31.74045,-11.03412 -38.24428,-30.90814 4.86919,-17.80312 10.30789,-29.79773 22.67335,-44.9807 3.61736,-12.01593 15.85171,-46.65484 -7.33527,-37.9674 -14.21154,-8.40512 -24.00667,23.53714 -37.4392,6.34288 -14.312,-8.38443 -24.3491,-23.57783 -6.41959,-33.03047 -0.87721,-14.82168 -4.58337,-21.56095 12.53923,-25.76621 6.1281,-10.45349 19.27927,-11.86506 27.62295,-21.05707 8.17897,-12.95879 26.53669,-19.3596 27.12774,-36.4298 8.92307,-21.09108 -26.25465,-12.53939 -30.30376,-15.04101 -12.6491,8.3712 -10.81952,-20.05046 -23.95209,-17.54242 -11.30929,4.16602 -34.47244,-17.34164 -37.39628,2.3101 -24.42898,6.92164 -0.54942,-15.41746 -15.72815,-23.14073 0.60129,-14.31123 -21.42171,-32.82106 0.88846,-32.03824 7.74671,-9.37434 25.25542,-16.82011 15.63425,-35.1654 16.92995,0.2505 30.50829,-12.06034 42.5944,-16.2968 19.62569,-3.4801 12.75028,-34.38987 35.02812,-32.32477 12.58218,-4.23075 29.20902,0.7464 27.0074,13.01657 12.89154,-4.75966 23.6003,-16.20465 32.87091,-1.43247 20.4766,2.04207 23.6129,21.30873 29.72886,32.28183 -10.29745,11.42666 -26.4741,11.62374 -38.33792,21.6008 -0.4145,17.60195 -14.24417,28.50547 2.38939,43.04367 13.8612,9.09237 30.48003,18.94634 47.12511,23.07386 15.96298,3.38673 34.30669,-2.23407 49.4125,-4.96404 24.09048,3.64675 2.84734,39.6153 -12.51476,37.05926 -9.4809,3.9216 -20.75269,5.16742 -25.34286,15.82036 -2.15293,9.84438 -3.84144,16.10562 4.52065,24.35123 -3.12787,13.25948 8.37065,29.97295 -6.41538,25.683 0.007,14.18078 -16.18008,-6.54355 -10.75447,11.00325 11.57295,6.86819 -4.63613,7.9171 1.69645,23.72027 -14.13187,17.67062 18.86406,22.81004 25.7062,40.31544 10.62837,9.69337 21.95181,10.04584 31.6119,22.5591 15.20362,5.33997 18.36981,18.90024 34.33923,16.205 17.78856,10.30191 29.89947,5.64581 48.19562,7.04191 8.58514,8.23285 17.16382,8.93266 20.85729,13.22599 2.76646,-1.55569 18.951,0.6143 13.21442,11.54592 -11.99899,17.43489 -11.85097,39.69345 13.64252,47.68281 10.18342,5.66904 22.14609,20.84447 33.48232,32.41795 -15.68527,13.36647 27.71725,21.29269 16.30232,35.30084 -4.03255,14.34686 -3.80553,19.46839 9.21335,29.54328 -19.27737,19.66957 20.11337,1.62705 20.57043,14.10349 4.60161,22.58037 -20.46726,37.80831 -37.94823,41.74624 -9.65726,8.805 -31.44972,20.77677 -39.84658,19.02303 -8.14278,-13.16526 -26.85368,2.34886 -31.63092,-17.33036 -19.62057,-4.9065 -10.69081,34.35502 -33.52211,14.07045 -19.51753,2.96721 -41.20171,-1.49171 -57.17168,-15.06542 -6.94704,-12.94353 -15.44706,-9.82811 -18.2537,-3.33277 -30.01696,-15.04523 5.34528,24.52687 -2.58015,16.14831 6.76674,8.9413 -6.60068,26.36043 -19.16359,16.12645 -17.81183,-4.8528 -19.11724,20.09382 -34.9468,16.42817 -9.49417,-2.53193 -29.35108,-7.26198 -24.31984,-18.94367 -13.00243,-13.17937 -33.24363,4.36184 -43.30066,0.11588 -14.14238,17.93739 -27.88104,-5.74026 -44.8215,-7.31155 -16.95587,-5.00847 10.52844,-29.90354 -11.22049,-28.89596 -13.82228,-18.05006 21.44328,-0.0891 12.8391,-13.28793 6.73588,-5.39801 11.47797,5.51055 18.77947,2.22654 z"></path>
    <g class="tooltip">
      <rect x="291" y="734" width="200" height="54" rx="7" fill="black"></rect>
      <text x="390" y="770" font-family="Arial" font-size="22px" text-anchor="middle" fill="white">Primorska</text>
    </g>
  </a>
</svg>